<svg width="166" height="16" viewBox="0 0 166 16" fill="none" xmlns="http://www.w3.org/2000/svg">
<path d="M0.760266 15.8345C0.253422 15.8345 0 15.5811 0 15.0742V0.77398C0 0.267135 0.253422 0.0137126 0.760266 0.0137126C1.26711 0.0137126 1.52053 0.267135 1.52053 0.77398V14.314H8.64049C9.14733 14.314 9.40076 14.5674 9.40076 15.0742C9.40076 15.5811 9.14733 15.8345 8.64049 15.8345H0.760266Z" fill="black"/>
<path d="M17.4299 15.8345C15.652 15.8345 14.3486 15.4202 13.52 14.5915C12.6913 13.7629 12.277 12.4596 12.277 10.6816V0.77398C12.277 0.532625 12.3414 0.347587 12.4701 0.218865C12.6069 0.0820967 12.7959 0.0137126 13.0373 0.0137126C13.2786 0.0137126 13.4637 0.0820967 13.5924 0.218865C13.7292 0.347587 13.7976 0.532625 13.7976 0.77398V10.6816C13.7976 11.5826 13.9102 12.2987 14.1355 12.8296C14.3688 13.3606 14.7509 13.7428 15.2819 13.9761C15.8129 14.2013 16.5289 14.314 17.4299 14.314H20.3262C21.2353 14.314 21.9513 14.2013 22.4742 13.9761C23.0052 13.7428 23.3834 13.3606 23.6086 12.8296C23.8419 12.2987 23.9586 11.5826 23.9586 10.6816V0.77398C23.9586 0.532625 24.0229 0.347587 24.1517 0.218865C24.2884 0.0820967 24.4775 0.0137126 24.7188 0.0137126C24.9602 0.0137126 25.1452 0.0820967 25.274 0.218865C25.4107 0.347587 25.4791 0.532625 25.4791 0.77398V10.6816C25.4791 12.4596 25.0648 13.7629 24.2361 14.5915C23.4155 15.4202 22.1122 15.8345 20.3262 15.8345H17.4299Z" fill="black"/>
<path d="M29.2671 15.6656C28.8648 15.384 28.8004 15.03 29.074 14.6036L33.7804 7.71292L29.1705 1.24462C28.897 0.842363 28.9613 0.488377 29.3636 0.182661C29.7819 -0.106964 30.1359 -0.0426028 30.4256 0.375745L34.782 6.48201L39.2471 0.363677C39.5608 -0.0466255 39.9148 -0.098919 40.309 0.206797C40.7193 0.504468 40.7756 0.854432 40.478 1.25669L35.7233 7.7974L40.5745 14.5915C40.8641 15.0018 40.7998 15.3598 40.3814 15.6656C39.9711 15.9471 39.6212 15.8828 39.3315 15.4725L34.7217 9.0283L30.329 15.4725C30.0474 15.8747 29.6934 15.9391 29.2671 15.6656Z" fill="black"/>
<path d="M49.3906 15.8345C47.6126 15.8345 46.3093 15.4202 45.4806 14.5915C44.652 13.7629 44.2376 12.4596 44.2376 10.6816V0.77398C44.2376 0.532625 44.302 0.347587 44.4307 0.218865C44.5675 0.0820967 44.7565 0.0137126 44.9979 0.0137126C45.2393 0.0137126 45.4243 0.0820967 45.553 0.218865C45.6898 0.347587 45.7582 0.532625 45.7582 0.77398V10.6816C45.7582 11.5826 45.8708 12.2987 46.0961 12.8296C46.3294 13.3606 46.7115 13.7428 47.2425 13.9761C47.7735 14.2013 48.4895 14.314 49.3906 14.314H52.2868C53.1959 14.314 53.9119 14.2013 54.4349 13.9761C54.9658 13.7428 55.344 13.3606 55.5692 12.8296C55.8025 12.2987 55.9192 11.5826 55.9192 10.6816V0.77398C55.9192 0.532625 55.9836 0.347587 56.1123 0.218865C56.249 0.0820967 56.4381 0.0137126 56.6795 0.0137126C56.9208 0.0137126 57.1059 0.0820967 57.2346 0.218865C57.3713 0.347587 57.4397 0.532625 57.4397 0.77398V10.6816C57.4397 12.4596 57.0254 13.7629 56.1967 14.5915C55.3761 15.4202 54.0728 15.8345 52.2868 15.8345H49.3906Z" fill="black"/>
<path d="M72.5351 15.8707C72.334 15.9914 72.1409 16.0276 71.9559 15.9793C71.7789 15.9391 71.626 15.8224 71.4973 15.6293L67.6115 9.35413H63.5326V15.0742C63.5326 15.5811 63.2792 15.8345 62.7723 15.8345C62.2655 15.8345 62.0121 15.5811 62.0121 15.0742V0.77398C62.0121 0.267135 62.2655 0.0137126 62.7723 0.0137126H68.42C69.8279 0.0137126 70.8979 0.379767 71.6301 1.11188C72.3622 1.84398 72.7282 2.91399 72.7282 4.32189V5.04595C72.7282 6.27686 72.4426 7.25032 71.8714 7.96634C71.3082 8.68236 70.4756 9.12082 69.3734 9.28172L72.8006 14.8329C73.05 15.2593 72.9615 15.6052 72.5351 15.8707ZM63.5326 7.8336H68.42C69.4096 7.8336 70.1216 7.61638 70.556 7.18194C70.9905 6.73946 71.2077 6.02746 71.2077 5.04595V4.32189C71.2077 3.34038 70.9905 2.63241 70.556 2.19797C70.1216 1.75549 69.4096 1.53425 68.42 1.53425H63.5326V7.8336Z" fill="black"/>
<path d="M80.7472 15.8345C80.2404 15.8345 79.9869 15.5811 79.9869 15.0742V9.84891L74.5444 1.22049C74.287 0.794093 74.3674 0.440106 74.7858 0.158526C75.2202 -0.115009 75.5702 -0.0345577 75.8356 0.39988L80.7472 8.21977L85.7915 0.387812C85.9202 0.186684 86.0731 0.0660066 86.2501 0.0257809C86.4351 -0.0144449 86.6282 0.0378487 86.8293 0.182661C87.2718 0.448151 87.3483 0.794093 87.0586 1.22049L81.5075 9.84891V15.0742C81.5075 15.5811 81.2541 15.8345 80.7472 15.8345Z" fill="black"/>
<path d="M95.4913 15.7621C95.0247 15.561 94.8839 15.2271 95.069 14.7605L100.97 0.605031C101.139 0.210819 101.425 0.0137126 101.827 0.0137126H101.887C102.281 0.0217581 102.555 0.218864 102.708 0.605031L108.645 14.7605C108.846 15.2271 108.71 15.561 108.235 15.7621C107.768 15.9471 107.438 15.8104 107.245 15.3518L105.749 11.7677H97.9652L96.4809 15.3518C96.2958 15.8184 95.966 15.9552 95.4913 15.7621ZM98.5807 10.2471H105.109L101.827 2.41519L98.5807 10.2471Z" fill="black"/>
<path d="M116.847 15.8345C115.069 15.8345 113.766 15.4202 112.937 14.5915C112.109 13.7629 111.694 12.4596 111.694 10.6816V0.77398C111.694 0.532625 111.759 0.347587 111.887 0.218865C112.024 0.0820967 112.213 0.0137126 112.455 0.0137126C112.696 0.0137126 112.881 0.0820967 113.01 0.218865C113.146 0.347587 113.215 0.532625 113.215 0.77398V10.6816C113.215 11.5826 113.327 12.2987 113.553 12.8296C113.786 13.3606 114.168 13.7428 114.699 13.9761C115.23 14.2013 115.946 14.314 116.847 14.314H119.743C120.653 14.314 121.369 14.2013 121.892 13.9761C122.423 13.7428 122.801 13.3606 123.026 12.8296C123.259 12.2987 123.376 11.5826 123.376 10.6816V0.77398C123.376 0.532625 123.44 0.347587 123.569 0.218865C123.706 0.0820967 123.895 0.0137126 124.136 0.0137126C124.377 0.0137126 124.563 0.0820967 124.691 0.218865C124.828 0.347587 124.896 0.532625 124.896 0.77398V10.6816C124.896 12.4596 124.482 13.7629 123.653 14.5915C122.833 15.4202 121.53 15.8345 119.743 15.8345H116.847Z" fill="black"/>
<path d="M130.229 15.8345C129.722 15.8345 129.469 15.5811 129.469 15.0742V0.77398C129.469 0.267135 129.722 0.0137126 130.229 0.0137126H136.046C138.081 0.0137126 139.569 0.484354 140.511 1.42564C141.452 2.36692 141.923 3.85527 141.923 5.89069V9.95752C141.923 11.9849 141.452 13.4732 140.511 14.4226C139.577 15.3639 138.089 15.8345 136.046 15.8345H130.229ZM130.989 14.314H136.046C137.124 14.314 137.981 14.1772 138.616 13.9037C139.252 13.6221 139.706 13.1635 139.98 12.5279C140.261 11.8843 140.402 11.0275 140.402 9.95752V5.89069C140.402 4.82069 140.261 3.9679 139.98 3.33234C139.706 2.68873 139.252 2.23015 138.616 1.95662C137.981 1.67504 137.124 1.53425 136.046 1.53425H130.989V14.314Z" fill="black"/>
<path d="M146.964 15.8345C146.722 15.8345 146.533 15.7701 146.396 15.6414C146.268 15.5046 146.203 15.3156 146.203 15.0742V0.77398C146.203 0.52458 146.268 0.335519 146.396 0.206797C146.533 0.0780739 146.722 0.0137126 146.964 0.0137126C147.213 0.0137126 147.402 0.0780739 147.531 0.206797C147.659 0.335519 147.724 0.52458 147.724 0.77398V15.0742C147.724 15.3156 147.659 15.5046 147.531 15.6414C147.402 15.7701 147.213 15.8345 146.964 15.8345Z" fill="black"/>
<path d="M157.145 15.8345C155.367 15.8345 154.063 15.4202 153.235 14.5915C152.406 13.7629 151.992 12.4596 151.992 10.6816V5.15456C151.992 3.3605 152.406 2.05316 153.235 1.23255C154.072 0.403903 155.371 -0.00237752 157.133 0.0137126H160.041C161.827 0.0137126 163.13 0.428038 163.951 1.25669C164.78 2.07729 165.194 3.38061 165.194 5.16663V10.6816C165.194 12.4596 164.78 13.7629 163.951 14.5915C163.13 15.4202 161.827 15.8345 160.041 15.8345H157.145ZM157.145 14.314H160.041C160.95 14.314 161.666 14.2013 162.189 13.9761C162.72 13.7428 163.098 13.3606 163.323 12.8296C163.557 12.2987 163.673 11.5826 163.673 10.6816V5.16663C163.673 4.26557 163.557 3.54956 163.323 3.01858C163.098 2.4876 162.72 2.10947 162.189 1.88421C161.666 1.6509 160.95 1.53425 160.041 1.53425H157.133C156.232 1.5262 155.516 1.63481 154.985 1.86007C154.462 2.08534 154.084 2.46346 153.85 2.99444C153.625 3.52542 153.512 4.24546 153.512 5.15456V10.6816C153.512 11.5826 153.625 12.2987 153.85 12.8296C154.084 13.3606 154.466 13.7428 154.997 13.9761C155.528 14.2013 156.244 14.314 157.145 14.314Z" fill="black"/>
</svg>
