<svg width="32" height="33" viewBox="0 0 32 33" fill="none" xmlns="http://www.w3.org/2000/svg">
<path d="M25.2363 7.3325C24.04 6.12422 22.6172 5.16377 21.0492 4.50613C19.4813 3.8485 17.799 3.50659 16.0988 3.5H16C12.5522 3.5 9.24559 4.86964 6.80761 7.30761C4.36964 9.74558 3 13.0522 3 16.5V23.5C3 24.2956 3.31607 25.0587 3.87868 25.6213C4.44129 26.1839 5.20435 26.5 6 26.5H8C8.79565 26.5 9.55871 26.1839 10.1213 25.6213C10.6839 25.0587 11 24.2956 11 23.5V18.5C11 17.7044 10.6839 16.9413 10.1213 16.3787C9.55871 15.8161 8.79565 15.5 8 15.5H5.045C5.23785 13.4149 6.02104 11.428 7.30278 9.77213C8.58452 8.11626 10.3117 6.86004 12.2819 6.15071C14.2521 5.44137 16.3836 5.30832 18.4267 5.76713C20.4698 6.22595 22.3398 7.25763 23.8175 8.74125C25.6236 10.5566 26.7346 12.9488 26.9563 15.5H24C23.2044 15.5 22.4413 15.8161 21.8787 16.3787C21.3161 16.9413 21 17.7044 21 18.5V23.5C21 24.2956 21.3161 25.0587 21.8787 25.6213C22.4413 26.1839 23.2044 26.5 24 26.5H27C27 27.2956 26.6839 28.0587 26.1213 28.6213C25.5587 29.1839 24.7957 29.5 24 29.5H17C16.7348 29.5 16.4804 29.6054 16.2929 29.7929C16.1054 29.9804 16 30.2348 16 30.5C16 30.7652 16.1054 31.0196 16.2929 31.2071C16.4804 31.3946 16.7348 31.5 17 31.5H24C25.3261 31.5 26.5979 30.9732 27.5355 30.0355C28.4732 29.0979 29 27.8261 29 26.5V16.5C29.0065 14.7995 28.6774 13.1144 28.0316 11.5412C27.3857 9.96811 26.4358 8.53788 25.2363 7.3325ZM8 17.5C8.26522 17.5 8.51957 17.6054 8.70711 17.7929C8.89464 17.9804 9 18.2348 9 18.5V23.5C9 23.7652 8.89464 24.0196 8.70711 24.2071C8.51957 24.3946 8.26522 24.5 8 24.5H6C5.73478 24.5 5.48043 24.3946 5.29289 24.2071C5.10536 24.0196 5 23.7652 5 23.5V17.5H8ZM24 24.5C23.7348 24.5 23.4804 24.3946 23.2929 24.2071C23.1054 24.0196 23 23.7652 23 23.5V18.5C23 18.2348 23.1054 17.9804 23.2929 17.7929C23.4804 17.6054 23.7348 17.5 24 17.5H27V24.5H24Z" fill="black"/>
</svg>
