<svg width="24" height="25" viewBox="0 0 24 25" fill="none" xmlns="http://www.w3.org/2000/svg">
<path d="M11.6068 3.21785C11.8325 3.02179 12.1681 3.02179 12.3938 3.21785L14.3421 4.91046C14.4649 5.01712 14.6257 5.06937 14.7877 5.05525L17.3589 4.83111C17.6567 4.80514 17.9282 5.00241 17.9956 5.29369L18.5769 7.80825C18.6136 7.9667 18.7129 8.10349 18.8523 8.1873L21.0642 9.51724C21.3204 9.6713 21.4241 9.99048 21.3073 10.2657L20.2997 12.6417C20.2362 12.7915 20.2362 12.9605 20.2997 13.1103L21.3073 15.4863C21.4241 15.7615 21.3204 16.0807 21.0642 16.2348L18.8523 17.5647C18.7129 17.6485 18.6136 17.7853 18.5769 17.9438L17.9956 20.4583C17.9282 20.7496 17.6567 20.9469 17.3589 20.9209L14.7877 20.6968C14.6257 20.6826 14.4649 20.7349 14.3421 20.8415L12.3938 22.5342C12.1681 22.7302 11.8325 22.7302 11.6068 22.5342L9.65842 20.8415C9.53565 20.7349 9.37484 20.6826 9.21282 20.6968L6.64168 20.9209C6.34385 20.9469 6.07234 20.7496 6.005 20.4583L5.42364 17.9438C5.38701 17.7853 5.28762 17.6485 5.14824 17.5647L2.93641 16.2348C2.68019 16.0807 2.57648 15.7615 2.69321 15.4863L3.70091 13.1103C3.7644 12.9605 3.7644 12.7915 3.70091 12.6417L2.69321 10.2657C2.57648 9.99048 2.68019 9.6713 2.93641 9.51724L5.14824 8.1873C5.28762 8.10349 5.38701 7.9667 5.42364 7.80825L6.005 5.29369C6.07234 5.00241 6.34385 4.80514 6.64168 4.83111L9.21282 5.05525C9.37484 5.06937 9.53565 5.01712 9.65842 4.91046L11.6068 3.21785Z" stroke="white" stroke-width="1.5"/>
<path d="M9 13.876L11 15.876L16 10.876" stroke="white" stroke-width="1.5" stroke-linecap="round" stroke-linejoin="round"/>
</svg>
